<svg id="visual" viewBox="0 0 960 540" width="960" height="540" xmlns="http://www.w3.org/2000/svg" xmlns:xlink="http://www.w3.org/1999/xlink" version="1.1"><rect x="0" y="0" width="960" height="540" fill="#0c1438"></rect><path d="M0 395L22.8 395C45.7 395 91.3 395 137 383.5C182.7 372 228.3 349 274 336.2C319.7 323.3 365.3 320.7 411.2 329C457 337.3 503 356.7 548.8 358.5C594.7 360.3 640.3 344.7 686 345.8C731.7 347 777.3 365 823 362.2C868.7 359.3 914.3 335.7 937.2 323.8L960 312L960 541L937.2 541C914.3 541 868.7 541 823 541C777.3 541 731.7 541 686 541C640.3 541 594.7 541 548.8 541C503 541 457 541 411.2 541C365.3 541 319.7 541 274 541C228.3 541 182.7 541 137 541C91.3 541 45.7 541 22.8 541L0 541Z" fill="#111941"></path><path d="M0 360L22.8 359.2C45.7 358.3 91.3 356.7 137 360.8C182.7 365 228.3 375 274 384.8C319.7 394.7 365.3 404.3 411.2 407.2C457 410 503 406 548.8 406.2C594.7 406.3 640.3 410.7 686 404.5C731.7 398.3 777.3 381.7 823 376.7C868.7 371.7 914.3 378.3 937.2 381.7L960 385L960 541L937.2 541C914.3 541 868.7 541 823 541C777.3 541 731.7 541 686 541C640.3 541 594.7 541 548.8 541C503 541 457 541 411.2 541C365.3 541 319.7 541 274 541C228.3 541 182.7 541 137 541C91.3 541 45.7 541 22.8 541L0 541Z" fill="#121a43"></path><path d="M0 419L22.8 417.5C45.7 416 91.3 413 137 406C182.7 399 228.3 388 274 392.3C319.7 396.7 365.3 416.3 411.2 415.3C457 414.3 503 392.7 548.8 386.3C594.7 380 640.3 389 686 398.7C731.7 408.3 777.3 418.7 823 423.3C868.7 428 914.3 427 937.2 426.5L960 426L960 541L937.2 541C914.3 541 868.7 541 823 541C777.3 541 731.7 541 686 541C640.3 541 594.7 541 548.8 541C503 541 457 541 411.2 541C365.3 541 319.7 541 274 541C228.3 541 182.7 541 137 541C91.3 541 45.7 541 22.8 541L0 541Z" fill="#121b44"></path><path d="M0 459L22.8 457.3C45.7 455.7 91.3 452.3 137 447.8C182.7 443.3 228.3 437.7 274 434.5C319.7 431.3 365.3 430.7 411.2 430.3C457 430 503 430 548.8 425.3C594.7 420.7 640.3 411.3 686 410.8C731.7 410.3 777.3 418.7 823 425.3C868.7 432 914.3 437 937.2 439.5L960 442L960 541L937.2 541C914.3 541 868.7 541 823 541C777.3 541 731.7 541 686 541C640.3 541 594.7 541 548.8 541C503 541 457 541 411.2 541C365.3 541 319.7 541 274 541C228.3 541 182.7 541 137 541C91.3 541 45.7 541 22.8 541L0 541Z" fill="#131c46"></path><path d="M0 461L22.8 456.3C45.7 451.7 91.3 442.3 137 437.2C182.7 432 228.3 431 274 433.8C319.7 436.7 365.3 443.3 411.2 446C457 448.7 503 447.3 548.8 452.2C594.7 457 640.3 468 686 470.3C731.7 472.7 777.3 466.3 823 465.5C868.7 464.7 914.3 469.3 937.2 471.7L960 474L960 541L937.2 541C914.3 541 868.7 541 823 541C777.3 541 731.7 541 686 541C640.3 541 594.7 541 548.8 541C503 541 457 541 411.2 541C365.3 541 319.7 541 274 541C228.3 541 182.7 541 137 541C91.3 541 45.7 541 22.8 541L0 541Z" fill="#141d48"></path><path d="M0 468L22.8 466.5C45.7 465 91.3 462 137 467.5C182.7 473 228.3 487 274 489.8C319.7 492.7 365.3 484.3 411.2 477.8C457 471.3 503 466.7 548.8 467.8C594.7 469 640.3 476 686 481C731.7 486 777.3 489 823 489.7C868.7 490.3 914.3 488.7 937.2 487.8L960 487L960 541L937.2 541C914.3 541 868.7 541 823 541C777.3 541 731.7 541 686 541C640.3 541 594.7 541 548.8 541C503 541 457 541 411.2 541C365.3 541 319.7 541 274 541C228.3 541 182.7 541 137 541C91.3 541 45.7 541 22.8 541L0 541Z" fill="#141e49"></path><path d="M0 492L22.8 493C45.7 494 91.3 496 137 496.8C182.7 497.7 228.3 497.3 274 500.3C319.7 503.3 365.3 509.7 411.2 509.2C457 508.7 503 501.3 548.8 499.8C594.7 498.3 640.3 502.7 686 506C731.7 509.3 777.3 511.7 823 514.2C868.7 516.7 914.3 519.3 937.2 520.7L960 522L960 541L937.2 541C914.3 541 868.7 541 823 541C777.3 541 731.7 541 686 541C640.3 541 594.7 541 548.8 541C503 541 457 541 411.2 541C365.3 541 319.7 541 274 541C228.3 541 182.7 541 137 541C91.3 541 45.7 541 22.8 541L0 541Z" fill="#151f4b"></path></svg>