<svg id="visual" viewBox="0 0 960 540" width="960" height="540" xmlns="http://www.w3.org/2000/svg" xmlns:xlink="http://www.w3.org/1999/xlink" version="1.1"><rect x="0" y="0" width="960" height="540" fill="#001220"></rect><path d="M0 377L22.8 383.2C45.7 389.3 91.3 401.7 137 409.7C182.7 417.7 228.3 421.3 274 422.7C319.7 424 365.3 423 411.2 419.7C457 416.3 503 410.7 548.8 403.5C594.7 396.3 640.3 387.7 686 389.7C731.7 391.7 777.3 404.3 823 397.7C868.7 391 914.3 365 937.2 352L960 339L960 541L937.2 541C914.3 541 868.7 541 823 541C777.3 541 731.7 541 686 541C640.3 541 594.7 541 548.8 541C503 541 457 541 411.2 541C365.3 541 319.7 541 274 541C228.3 541 182.7 541 137 541C91.3 541 45.7 541 22.8 541L0 541Z" fill="#0a1130"></path><path d="M0 438L22.8 443.3C45.7 448.7 91.3 459.3 137 461.5C182.7 463.7 228.3 457.3 274 448.2C319.7 439 365.3 427 411.2 429.5C457 432 503 449 548.8 460.5C594.7 472 640.3 478 686 476.3C731.7 474.7 777.3 465.3 823 463.7C868.7 462 914.3 468 937.2 471L960 474L960 541L937.2 541C914.3 541 868.7 541 823 541C777.3 541 731.7 541 686 541C640.3 541 594.7 541 548.8 541C503 541 457 541 411.2 541C365.3 541 319.7 541 274 541C228.3 541 182.7 541 137 541C91.3 541 45.7 541 22.8 541L0 541Z" fill="#15204f"></path></svg>